<svg width="749" height="132" viewBox="0 0 749 132" fill="none" xmlns="http://www.w3.org/2000/svg">
<path d="M112.5 131.25V121.875C112.5 120.644 112.258 119.425 111.787 118.287C111.315 117.15 110.625 116.117 109.755 115.246C108.883 114.375 107.85 113.685 106.713 113.214C105.575 112.743 104.356 112.5 103.125 112.5H65.6224C53.1903 112.5 41.2674 107.562 32.4765 98.7708C23.6857 89.9799 18.7469 78.0574 18.7467 65.6252C18.7467 59.4694 19.9592 53.374 22.315 47.6868C24.6707 41.9996 28.1236 36.8322 32.4764 32.4793C36.8292 28.1266 41.9967 24.6739 47.6839 22.3182C53.3711 19.9626 59.4666 18.7502 65.6224 18.7503H103.122C104.353 18.7506 105.573 18.5084 106.711 18.0375C107.848 17.5665 108.883 16.8759 109.753 16.0054C110.624 15.1347 111.315 14.1011 111.787 12.9635C112.258 11.8259 112.5 10.6065 112.5 9.37513V0H65.6245C57.0065 -4.94627e-10 48.4729 1.69745 40.5109 4.99543C32.5489 8.29341 25.3145 13.1274 19.2208 19.2212C13.1269 25.3151 8.29304 32.5496 4.99517 40.5116C1.69727 48.4736 -9.23343e-05 57.0073 3.76726e-09 65.6252C-3.26374e-09 83.0298 6.91396 99.7221 19.2209 112.029C31.5279 124.336 48.2198 131.25 65.6245 131.25H112.5Z" fill="#F54A48"/>
<path d="M37.4969 65.6252C37.4969 73.0844 40.46 80.2378 45.7343 85.5117C51.0086 90.7864 58.162 93.7492 65.6209 93.7492H112.5C117.473 93.7492 122.242 95.7249 125.758 99.2411C129.274 102.757 131.25 107.526 131.25 112.499V131.25H150V112.5C150 102.555 146.049 93.0166 139.017 85.9835C131.984 78.9511 122.445 75.0004 112.5 75.0004H65.6223C63.1359 75.0004 60.7513 74.0125 58.9931 72.2548C57.2349 70.4963 56.2472 68.1117 56.2472 65.6252C56.2472 63.1388 57.2349 60.7542 58.9931 58.996C60.7513 57.2378 63.1359 56.2501 65.6223 56.2501H112.5C122.445 56.2501 131.984 52.2992 139.017 45.2666C146.049 38.2341 150 28.6958 150 18.7503V0H131.247V18.7503C131.247 23.7224 129.272 28.4911 125.756 32.0072C122.241 35.5233 117.472 37.4991 112.5 37.4998H65.6223C61.9288 37.4996 58.2714 38.227 54.859 39.6403C51.4466 41.0537 48.346 43.1255 45.7343 45.7371C43.1226 48.3489 41.0509 51.4495 39.6375 54.8619C38.2242 58.2743 37.4968 61.9317 37.4969 65.6252Z" fill="#F54A48"/>
<path d="M211.5 30C217.767 30 223.133 31.5667 227.6 34.7C232.133 37.7667 235.567 41.9667 237.9 47.3C240.3 52.5667 241.5 58.4667 241.5 65C241.5 71.5333 240.3 77.4667 237.9 82.8C235.567 88.0667 232.133 92.2667 227.6 95.4C223.133 98.4667 217.767 100 211.5 100H187.6C185.867 100 184.4 99.4333 183.2 98.3C182.067 97.1 181.5 95.6333 181.5 93.9V36.1C181.5 34.3667 182.067 32.9333 183.2 31.8C184.4 30.6 185.867 30 187.6 30H211.5ZM210.5 88.5C216.5 88.5 221 86.3 224 81.9C227 77.4333 228.5 71.8 228.5 65C228.5 58.2 226.967 52.6 223.9 48.2C220.9 43.7333 216.433 41.5 210.5 41.5H194V88.5H210.5ZM300.766 72C300.699 73.6 300.066 74.9 298.866 75.9C297.666 76.9 296.266 77.4 294.666 77.4H261.666C262.466 81.3333 264.299 84.4333 267.166 86.7C270.032 88.9 273.266 90 276.866 90C279.599 90 281.732 89.7667 283.266 89.3C284.799 88.7667 285.999 88.2333 286.866 87.7C287.799 87.1 288.432 86.7 288.766 86.5C289.966 85.9 291.099 85.6 292.166 85.6C293.566 85.6 294.766 86.1 295.766 87.1C296.766 88.1 297.266 89.2667 297.266 90.6C297.266 92.4 296.332 94.0333 294.466 95.5C292.599 97.0333 290.099 98.3333 286.966 99.4C283.832 100.467 280.666 101 277.466 101C271.866 101 266.966 99.8333 262.766 97.5C258.632 95.1667 255.432 91.9667 253.166 87.9C250.899 83.7667 249.766 79.1333 249.766 74C249.766 68.2667 250.966 63.2333 253.366 58.9C255.766 54.5667 258.932 51.2667 262.866 49C266.799 46.6667 270.999 45.5 275.466 45.5C279.866 45.5 283.999 46.7 287.866 49.1C291.799 51.5 294.932 54.7333 297.266 58.8C299.599 62.8667 300.766 67.2667 300.766 72ZM275.466 56.5C267.732 56.5 263.166 60.1333 261.766 67.4H287.966V66.7C287.699 63.9 286.332 61.5 283.866 59.5C281.399 57.5 278.599 56.5 275.466 56.5ZM324.273 41.5V59.1H345.873C347.607 59.1 349.04 59.6667 350.173 60.8C351.373 61.8667 351.973 63.2667 351.973 65C351.973 66.4667 351.373 67.7667 350.173 68.9C349.04 70.0333 347.607 70.6 345.873 70.6H324.273V93.9C324.273 95.6333 323.64 97.1 322.373 98.3C321.173 99.4333 319.74 100 318.073 100C316.207 100 314.673 99.4333 313.473 98.3C312.34 97.1667 311.773 95.7 311.773 93.9V36.1C311.773 34.3667 312.34 32.9333 313.473 31.8C314.673 30.6 316.14 30 317.873 30H350.373C352.107 30 353.54 30.5667 354.673 31.7C355.873 32.7667 356.473 34.1667 356.473 35.9C356.473 37.3667 355.873 38.6667 354.673 39.8C353.54 40.9333 352.107 41.5 350.373 41.5H324.273ZM378.226 93.9C378.226 95.6333 377.659 97.1 376.526 98.3C375.392 99.4333 373.959 100 372.226 100C370.492 100 369.059 99.4333 367.926 98.3C366.792 97.1 366.226 95.6333 366.226 93.9V52.6C366.226 50.8667 366.792 49.4333 367.926 48.3C369.059 47.1 370.492 46.5 372.226 46.5C373.959 46.5 375.392 47.1 376.526 48.3C377.659 49.4333 378.226 50.8667 378.226 52.6V93.9ZM372.126 40C369.859 40 368.259 39.6333 367.326 38.9C366.392 38.1667 365.926 36.8667 365.926 35V33.1C365.926 31.2333 366.426 29.9333 367.426 29.2C368.426 28.4667 370.026 28.1 372.226 28.1C374.559 28.1 376.192 28.4667 377.126 29.2C378.059 29.9333 378.526 31.2333 378.526 33.1V35C378.526 36.9333 378.026 38.2667 377.026 39C376.092 39.6667 374.459 40 372.126 40ZM498.286 29.7C499.886 29.7 501.353 30.3333 502.686 31.6C504.086 32.8 504.786 34.3333 504.786 36.2C504.786 36.8 504.686 37.4667 504.486 38.2L484.786 96.2C484.386 97.3333 483.686 98.2333 482.686 98.9C481.686 99.5667 480.586 99.9333 479.386 100C478.186 100 477.053 99.6667 475.986 99C474.919 98.3333 474.086 97.3667 473.486 96.1L459.286 63.8L444.986 96.1C444.386 97.3667 443.553 98.3333 442.486 99C441.419 99.6667 440.286 100 439.086 100C437.886 99.9333 436.786 99.5667 435.786 98.9C434.786 98.2333 434.086 97.3333 433.686 96.2L413.986 38.2C413.786 37.4667 413.686 36.8 413.686 36.2C413.686 34.3333 414.353 32.8 415.686 31.6C417.086 30.3333 418.619 29.7 420.286 29.7C421.619 29.7 422.819 30.0667 423.886 30.8C424.953 31.4667 425.686 32.4 426.086 33.6L440.986 78.8L453.986 47.6C454.519 46.4 455.286 45.4667 456.286 44.8C457.286 44.0667 458.419 43.7333 459.686 43.8C460.953 43.7333 462.053 44.0667 462.986 44.8C463.986 45.4667 464.753 46.4 465.286 47.6L477.586 78.5L492.386 33.6C492.786 32.4 493.519 31.4667 494.586 30.8C495.719 30.0667 496.953 29.7 498.286 29.7ZM524.222 93.9C524.222 95.6333 523.655 97.1 522.522 98.3C521.389 99.4333 519.955 100 518.222 100C516.489 100 515.055 99.4333 513.922 98.3C512.789 97.1 512.222 95.6333 512.222 93.9V52.6C512.222 50.8667 512.789 49.4333 513.922 48.3C515.055 47.1 516.489 46.5 518.222 46.5C519.955 46.5 521.389 47.1 522.522 48.3C523.655 49.4333 524.222 50.8667 524.222 52.6V93.9ZM518.122 40C515.855 40 514.255 39.6333 513.322 38.9C512.389 38.1667 511.922 36.8667 511.922 35V33.1C511.922 31.2333 512.422 29.9333 513.422 29.2C514.422 28.4667 516.022 28.1 518.222 28.1C520.555 28.1 522.189 28.4667 523.122 29.2C524.055 29.9333 524.522 31.2333 524.522 33.1V35C524.522 36.9333 524.022 38.2667 523.022 39C522.089 39.6667 520.455 40 518.122 40ZM570.655 89C572.255 89 573.588 89.5333 574.655 90.6C575.721 91.6 576.255 92.9 576.255 94.5C576.255 96.0333 575.721 97.3333 574.655 98.4C573.588 99.4667 572.255 100 570.655 100H538.455C536.921 100 535.621 99.4667 534.555 98.4C533.555 97.2667 533.055 96.0667 533.055 94.8C533.055 93.6667 533.188 92.7333 533.455 92C533.721 91.2 534.221 90.3 534.955 89.3L558.755 58.5H539.355C537.755 58.5 536.421 57.9667 535.355 56.9C534.288 55.8333 533.755 54.5 533.755 52.9C533.755 51.3667 534.288 50.1 535.355 49.1C536.421 48.0333 537.755 47.5 539.355 47.5H570.155C571.621 47.5 572.855 48.0333 573.855 49.1C574.921 50.1 575.455 51.3667 575.455 52.9C575.455 53.9 575.355 54.7667 575.155 55.5C574.955 56.1667 574.488 56.9667 573.755 57.9L549.755 89H570.655ZM628.292 45.5C630.026 45.5 631.459 46.0667 632.592 47.2C633.726 48.3333 634.292 49.8 634.292 51.6V93.9C634.292 95.6333 633.726 97.1 632.592 98.3C631.459 99.4333 630.026 100 628.292 100C626.559 100 625.126 99.4333 623.992 98.3C622.926 97.1667 622.359 95.7333 622.292 94C620.626 95.9333 618.359 97.6 615.492 99C612.692 100.333 609.726 101 606.592 101C601.992 101 597.826 99.8333 594.092 97.5C590.359 95.1 587.392 91.8 585.192 87.6C583.059 83.4 581.992 78.6333 581.992 73.3C581.992 67.9667 583.059 63.2 585.192 59C587.326 54.7333 590.226 51.4333 593.892 49.1C597.626 46.7 601.726 45.5 606.192 45.5C609.392 45.5 612.392 46.1 615.192 47.3C617.992 48.4333 620.359 49.9 622.292 51.7V51.6C622.292 49.8667 622.859 48.4333 623.992 47.3C625.126 46.1 626.559 45.5 628.292 45.5ZM608.092 90C612.426 90 615.959 88.4333 618.692 85.3C621.426 82.1 622.792 78.1 622.792 73.3C622.792 68.5 621.426 64.5 618.692 61.3C615.959 58.1 612.426 56.5 608.092 56.5C603.826 56.5 600.326 58.1 597.592 61.3C594.859 64.5 593.492 68.5 593.492 73.3C593.492 78.1 594.826 82.1 597.492 85.3C600.226 88.4333 603.759 90 608.092 90ZM675.097 45.5C677.097 45.5 678.764 46.0667 680.097 47.2C681.497 48.3333 682.197 49.6667 682.197 51.2C682.197 53.2667 681.664 54.8333 680.597 55.9C679.53 56.9 678.264 57.4 676.797 57.4C675.797 57.4 674.664 57.1667 673.397 56.7C673.197 56.6333 672.73 56.5 671.997 56.3C671.33 56.1 670.597 56 669.797 56C668.064 56 666.397 56.5333 664.797 57.6C663.197 58.6667 661.864 60.3 660.797 62.5C659.797 64.6333 659.297 67.2 659.297 70.2V93.9C659.297 95.6333 658.73 97.1 657.597 98.3C656.464 99.4333 655.03 100 653.297 100C651.564 100 650.13 99.4333 648.997 98.3C647.864 97.1 647.297 95.6333 647.297 93.9V52.6C647.297 50.8667 647.864 49.4333 648.997 48.3C650.13 47.1 651.564 46.5 653.297 46.5C655.03 46.5 656.464 47.1 657.597 48.3C658.73 49.4333 659.297 50.8667 659.297 52.6V53.9C660.83 51.1667 663.03 49.1 665.897 47.7C668.764 46.2333 671.83 45.5 675.097 45.5ZM731.71 26C733.443 26 734.877 26.5667 736.01 27.7C737.143 28.8333 737.71 30.3 737.71 32.1V93.9C737.71 95.6333 737.143 97.1 736.01 98.3C734.877 99.4333 733.443 100 731.71 100C729.977 100 728.543 99.4333 727.41 98.3C726.343 97.1667 725.777 95.7333 725.71 94C724.043 95.9333 721.777 97.6 718.91 99C716.11 100.333 713.143 101 710.01 101C705.41 101 701.243 99.8333 697.51 97.5C693.777 95.1 690.81 91.8 688.61 87.6C686.477 83.4 685.41 78.6333 685.41 73.3C685.41 67.9667 686.477 63.2 688.61 59C690.743 54.7333 693.643 51.4333 697.31 49.1C701.043 46.7 705.143 45.5 709.61 45.5C712.81 45.5 715.81 46.1 718.61 47.3C721.41 48.4333 723.777 49.9 725.71 51.7V32.1C725.71 30.3667 726.277 28.9333 727.41 27.8C728.543 26.6 729.977 26 731.71 26ZM711.51 90C715.843 90 719.377 88.4333 722.11 85.3C724.843 82.1 726.21 78.1 726.21 73.3C726.21 68.5 724.843 64.5 722.11 61.3C719.377 58.1 715.843 56.5 711.51 56.5C707.243 56.5 703.743 58.1 701.01 61.3C698.277 64.5 696.91 68.5 696.91 73.3C696.91 78.1 698.243 82.1 700.91 85.3C703.643 88.4333 707.177 90 711.51 90Z" fill="white"/>
</svg>
