<svg width="150" height="132" viewBox="0 0 150 132" fill="none" xmlns="http://www.w3.org/2000/svg">
<path d="M112.5 131.25V121.875C112.5 120.644 112.258 119.425 111.787 118.287C111.315 117.15 110.625 116.117 109.755 115.246C108.883 114.375 107.85 113.685 106.713 113.214C105.575 112.743 104.356 112.5 103.125 112.5H65.6224C53.1903 112.5 41.2674 107.562 32.4765 98.7708C23.6857 89.9799 18.7469 78.0574 18.7467 65.6252C18.7467 59.4694 19.9592 53.374 22.315 47.6868C24.6707 41.9996 28.1236 36.8322 32.4764 32.4793C36.8292 28.1266 41.9967 24.6739 47.6839 22.3182C53.3711 19.9626 59.4666 18.7502 65.6224 18.7503H103.122C104.353 18.7506 105.573 18.5084 106.711 18.0375C107.848 17.5665 108.883 16.8759 109.753 16.0054C110.624 15.1347 111.315 14.1011 111.787 12.9635C112.258 11.8259 112.5 10.6065 112.5 9.37513V0H65.6245C57.0065 -4.94627e-10 48.4729 1.69745 40.5109 4.99543C32.5489 8.29341 25.3145 13.1274 19.2208 19.2212C13.1269 25.3151 8.29304 32.5496 4.99517 40.5116C1.69727 48.4736 -9.23343e-05 57.0073 3.76726e-09 65.6252C-3.26374e-09 83.0298 6.91396 99.7221 19.2209 112.029C31.5279 124.336 48.2198 131.25 65.6245 131.25H112.5Z" fill="#F54A48"/>
<path d="M37.497 65.6252C37.497 73.0844 40.4601 80.2378 45.7344 85.5117C51.0086 90.7864 58.1621 93.7492 65.621 93.7492H112.5C117.473 93.7492 122.242 95.7249 125.758 99.2411C129.274 102.757 131.25 107.526 131.25 112.499V131.25H150V112.5C150 102.555 146.049 93.0166 139.017 85.9835C131.984 78.9511 122.446 75.0004 112.5 75.0004H65.6224C63.136 75.0004 60.7514 74.0125 58.9932 72.2548C57.235 70.4963 56.2473 68.1117 56.2473 65.6252C56.2473 63.1388 57.235 60.7542 58.9932 58.996C60.7514 57.2378 63.136 56.2501 65.6224 56.2501H112.5C122.446 56.2501 131.984 52.2992 139.017 45.2666C146.049 38.2341 150 28.6958 150 18.7503V0H131.247V18.7503C131.247 23.7224 129.272 28.4911 125.756 32.0072C122.241 35.5233 117.472 37.4991 112.5 37.4998H65.6224C61.9289 37.4996 58.2715 38.227 54.8591 39.6403C51.4467 41.0537 48.346 43.1255 45.7344 45.7371C43.1226 48.3489 41.051 51.4495 39.6376 54.8619C38.2242 58.2743 37.4969 61.9317 37.497 65.6252Z" fill="#F54A48"/>
</svg>
