<svg width="300" height="300" viewBox="0 0 300 300" fill="none" xmlns="http://www.w3.org/2000/svg">
<circle cx="150" cy="150" r="150" fill="black"/>
<path d="M181.5 215.25V205.875C181.5 204.644 181.258 203.425 180.787 202.287C180.315 201.15 179.625 200.117 178.755 199.246C177.883 198.375 176.85 197.685 175.713 197.214C174.575 196.743 173.356 196.5 172.125 196.5H134.622C122.19 196.5 110.267 191.562 101.477 182.771C92.6857 173.98 87.7469 162.057 87.7467 149.625C87.7467 143.469 88.9592 137.374 91.315 131.687C93.6707 126 97.1236 120.832 101.476 116.479C105.829 112.127 110.997 108.674 116.684 106.318C122.371 103.963 128.467 102.75 134.622 102.75H172.122C173.353 102.751 174.573 102.508 175.711 102.037C176.848 101.566 177.883 100.876 178.753 100.005C179.624 99.1347 180.315 98.1011 180.787 96.9635C181.258 95.8259 181.5 94.6065 181.5 93.3751V84H134.625C126.007 84 117.473 85.6975 109.511 88.9954C101.549 92.2934 94.3145 97.1274 88.2208 103.221C82.1269 109.315 77.293 116.55 73.9952 124.512C70.6973 132.474 68.9999 141.007 69 149.625C69 167.03 75.914 183.722 88.2209 196.029C100.528 208.336 117.22 215.25 134.625 215.25H181.5Z" fill="#F54A48"/>
<path d="M106.497 149.625C106.497 157.084 109.46 164.238 114.734 169.512C120.009 174.786 127.162 177.749 134.621 177.749H181.5C186.473 177.749 191.242 179.725 194.758 183.241C198.274 186.757 200.25 191.526 200.25 196.499V215.25H219V196.5C219 186.555 215.049 177.017 208.017 169.983C200.984 162.951 191.446 159 181.5 159H134.622C132.136 159 129.751 158.013 127.993 156.255C126.235 154.496 125.247 152.112 125.247 149.625C125.247 147.139 126.235 144.754 127.993 142.996C129.751 141.238 132.136 140.25 134.622 140.25H181.5C191.446 140.25 200.984 136.299 208.017 129.267C215.049 122.234 219 112.696 219 102.75V84H200.247V102.75C200.247 107.722 198.272 112.491 194.756 116.007C191.241 119.523 186.472 121.499 181.5 121.5H134.622C130.929 121.5 127.272 122.227 123.859 123.64C120.447 125.054 117.346 127.125 114.734 129.737C112.123 132.349 110.051 135.449 108.638 138.862C107.224 142.274 106.497 145.932 106.497 149.625Z" fill="#F54A48"/>
</svg>
